<?xml version="1.0" encoding="UTF-8"?>
<svg id="Layer_1" data-name="Layer 1" xmlns="http://www.w3.org/2000/svg" version="1.1" viewBox="0 0 83.9 83.9">
  <defs>
    <style>
      .cls-1 {
        fill: #000;
        stroke-width: 0px;
      }
    </style>
  </defs>
  <g id="Layer_1-2" data-name="Layer 1-2">
    <g id="_1007_Sound_speaker_volume_on" data-name=" 1007 Sound speaker volume on">
      <g>
        <path class="cls-1" d="M76.4,23.1c-.6-.8-1.7-1-2.4-.6-.8.6-1,1.7-.6,2.4,7,10.6,6.9,24.1,0,34.3-.6.8-.3,2,.6,2.4.8.6,2,.3,2.4-.6,7.6-11.3,7.7-26.2,0-37.9Z"/>
        <path class="cls-1" d="M69.4,28.3c-.6-.8-1.5-1.1-2.4-.6-.8.6-1.1,1.5-.6,2.4,2.2,3.6,3.5,7.8,3.5,11.9s-1.3,8.4-3.5,12c-.6.8-.3,2,.6,2.4.8.6,2,.3,2.4-.6,5.5-8.4,5.5-18.9,0-27.6Z"/>
        <path class="cls-1" d="M59.7,33.1c-.8.4-1.1,1.5-.7,2.4,2.5,4.5,2.4,9.2,0,13.4-.4.8-.1,2,.7,2.4s2,.1,2.4-.7c2.9-5.2,3.2-11.3,0-16.8-.6-.8-1.5-1.1-2.4-.7Z"/>
        <path class="cls-1" d="M54.1,14.9c0-1.3-1.3-2.1-2.5-1.5L13.4,30.1h-5.2c-3.6,0-6.4,2.9-6.4,6.4v11.1c0,3.6,2.9,6.4,6.4,6.4h5.2l38.2,16.5c1.1.6,2.4-.3,2.4-1.5.1-2,.1-53.3.1-54.2h0ZM5.3,47.6v-11.1c0-1.7,1.4-2.9,2.9-2.9h3.8v16.9h-3.8c-1.5.1-2.9-1.3-2.9-2.9ZM15.5,51.3v-18.2l35.1-15.5v6.3l-29,11.6c-.8.4-1.4,1.4-1,2.2.4.8,1.4,1.4,2.2,1l27.7-11.1v38.8l-35.1-15.1h0Z"/>
      </g>
    </g>
  </g>
</svg>