<?xml version="1.0" encoding="utf-8"?>
<!-- Generator: Adobe Illustrator 23.0.3, SVG Export Plug-In . SVG Version: 6.00 Build 0)  -->
<svg version="1.1" id="Layer_1" xmlns="http://www.w3.org/2000/svg" xmlns:xlink="http://www.w3.org/1999/xlink" x="0px" y="0px"
	 viewBox="0 0 83.9 83.9" enable-background="new 0 0 83.9 83.9" xml:space="preserve">
<g>
	<g>
		<path fill="#8B3ADF" d="M49,73.8H19.7c-0.5,0-1-0.4-1-1V13.6c0-0.5,0.4-1,1-1h44c0.3,0,0.5,0.1,0.7,0.3c0.2,0.2,0.3,0.4,0.3,0.7
			l-0.2,44.6c0,0.3-0.1,0.5-0.3,0.7L49.7,73.5C49.5,73.7,49.3,73.8,49,73.8z M20.6,71.9h28l13.9-14.1l0.2-43.3H20.6V71.9z"/>
	</g>
	<g>
		<path fill="#8B3ADF" d="M49,73.8c-0.1,0-0.2,0-0.4-0.1c-0.4-0.1-0.6-0.5-0.6-0.9v-7.3c0-5.7,2.5-8.3,8.2-8.3h7.2
			c0.4,0,0.7,0.2,0.9,0.6c0.1,0.4,0.1,0.8-0.2,1L49.7,73.5C49.5,73.7,49.3,73.8,49,73.8z M56.3,59.2c-4.6,0-6.3,1.7-6.3,6.4v5
			l11.2-11.3H56.3z"/>
	</g>
	<g>
		<rect x="19.8" y="13.6" fill-rule="evenodd" clip-rule="evenodd" fill="#8B3ADF" width="43.8" height="14.8"/>
	</g>
	<g>
		<path fill="#8B3ADF" d="M31.9,60.8c-3,0-5.4-2.2-5.4-5c0-2.7,2.4-4.9,5.4-4.9c0.9,0,1.8,0.2,2.6,0.6V36.2c0-0.7,0.5-1.3,1.2-1.4
			l14.5-1.9c0.1,0,0.1,0,0.2,0c0.4,0,0.7,0.1,0.9,0.4c0.3,0.3,0.5,0.7,0.5,1.1v17.8c0,2.7-2.4,4.9-5.4,4.9c-3,0-5.4-2.2-5.4-4.9
			c0-2.9,2.3-4.9,5.6-4.9c1.2,0,2.3,0.3,3.3,0.8v-7.2l-13.5,1.8v10.8c0,0.2,0,0.5,0,0.7c0,0.4,0.1,0.9,0,1.6
			C36.4,58.8,34.6,60.8,31.9,60.8z M31.9,52.8c-1.9,0-3.5,1.4-3.5,3c0,1.7,1.6,3,3.5,3c2.1,0,2.6-1.8,2.6-3.2c0-0.5,0-1,0-1.4
			c0-0.2,0-0.3,0-0.5C33.8,53.2,32.9,52.8,31.9,52.8z M46.6,49.2c-1.7,0-3.7,0.8-3.7,3c0,1.7,1.6,3,3.5,3c1.9,0,3.5-1.4,3.5-3v-1.8
			C49.1,49.6,47.9,49.2,46.6,49.2z M36.4,36.7v4l13.5-1.8v-4L36.4,36.7z"/>
	</g>
	<g>
		<path fill="#FEFEFE" d="M30.8,24.9h-1.6v-1.4h1.6V24.9z M34.4,17.1l2,5.7h0l2-5.7h2.1v7.8h-1.6v-2.3l0.2-3.5h0l-2.1,5.8h-1
			l-2.1-5.8h0l0.1,3.4v2.3h-1.6v-7.8H34.4z M43.5,22.1v2.8h-1.6v-7.8H45c0.9,0,1.6,0.2,2.1,0.7c0.5,0.5,0.8,1.1,0.8,1.8
			c0,0.7-0.3,1.3-0.8,1.8c-0.5,0.5-1.2,0.7-2.1,0.7H43.5z M43.5,20.9H45c0.4,0,0.8-0.1,1-0.4c0.2-0.2,0.3-0.5,0.3-0.9
			c0-0.4-0.1-0.7-0.3-0.9c-0.2-0.2-0.5-0.4-1-0.4h-1.5V20.9z M50.4,20.3h0.9c0.4,0,0.6-0.1,0.8-0.3c0.2-0.2,0.3-0.5,0.3-0.8
			c0-0.3-0.1-0.6-0.3-0.8c-0.2-0.2-0.4-0.3-0.8-0.3c-0.3,0-0.5,0.1-0.7,0.2c-0.2,0.2-0.3,0.4-0.3,0.7h-1.5l0,0
			c0-0.6,0.2-1.1,0.7-1.5c0.5-0.4,1.1-0.6,1.8-0.6c0.8,0,1.4,0.2,1.9,0.6c0.5,0.4,0.7,0.9,0.7,1.7c0,0.3-0.1,0.7-0.3,1
			c-0.2,0.3-0.5,0.5-0.9,0.7c0.4,0.2,0.8,0.4,1,0.7c0.2,0.3,0.3,0.7,0.3,1.1c0,0.7-0.3,1.3-0.8,1.7c-0.5,0.4-1.2,0.6-2,0.6
			c-0.7,0-1.3-0.2-1.9-0.6c-0.5-0.4-0.8-0.9-0.7-1.6l0,0h1.5c0,0.3,0.1,0.5,0.3,0.7c0.2,0.2,0.5,0.3,0.8,0.3c0.4,0,0.7-0.1,0.9-0.3
			c0.2-0.2,0.3-0.5,0.3-0.8c0-0.4-0.1-0.7-0.3-0.9c-0.2-0.2-0.5-0.3-0.9-0.3h-0.9V20.3z"/>
	</g>
</g>
</svg>
