<?xml version="1.0" encoding="UTF-8"?>
<svg id="Layer_1" data-name="Layer 1" xmlns="http://www.w3.org/2000/svg" version="1.1" viewBox="0 0 83.9 83.9">
  <defs>
    <style>
      .cls-1 {
        fill: #231f20;
        stroke-width: 0px;
      }
    </style>
  </defs>
  <g id="Layer_1-2" data-name="Layer 1-2">
    <g>
      <path class="cls-1" d="M26.5,50.1h5v15.7c0,.5.4.9.9.9h4.4c.5,0,.9-.4.9-.9v-24c0-.5-.4-.9-.9-.9h-3.7c-.5,0-.9.4-.9.9s0,.2-.1.7c-.2.6-.4,1-.7,1.4-.5.5-1.1.8-1.9,1-.5.1-1.5.2-3,.3-.5,0-.8.4-.8.9v3.2c0,.5.4.9.9.9h0ZM27.3,46.8c1.1,0,1.9-.2,2.4-.3,1.1-.2,2-.7,2.7-1.5.5-.5.9-1.2,1.1-2.1,0-.1,0-.2,0-.3h2.2v22.3h-2.7v-15.7c0-.5-.4-.9-.9-.9h-5v-1.5h0Z"/>
      <path class="cls-1" d="M42.7,64.9c1.6,1.4,3.7,2,6.2,2s5.5-1,7-2.9c1.5-1.9,2.3-4.1,2.3-6.5s-.8-5-2.5-6.5c-1.6-1.5-3.6-2.2-5.8-2.2s-2,.1-2.8.4c-.1,0-.3,0-.4.2l.2-2.8h7.8c.5,0,.9-.4.9-.9v-4c0-.5-.4-.9-.9-.9h-12.9c-.5,0-.8.4-.9.8l-.9,13.3c0,.2,0,.5.2.6.2.2.4.3.6.3l4.7.2c.3,0,.7-.2.8-.5.3-.5.7-.9,1.2-1,.3-.1.7-.2,1.2-.2.9,0,1.6.3,2,.9.5.7.7,1.6.7,2.6s-.3,1.9-.7,2.6c-.5.6-1.1.9-2,.9s-1.3-.2-1.7-.6c-.4-.4-.7-1.1-.8-1.9,0-.4-.4-.7-.8-.7h-4.7c-.2,0-.5,0-.6.3s-.2.4-.2.7c.2,2.5,1.1,4.4,2.8,5.8h0ZM44.9,59.8c.2.9.6,1.6,1.1,2.1.7.7,1.7,1.1,2.9,1.1s2.6-.5,3.4-1.6c.7-1,1.1-2.2,1.1-3.6s-.3-2.6-1-3.6c-.7-1.1-1.9-1.6-3.4-1.6s-1.3,0-1.8.3c-.8.3-1.4.7-1.8,1.4h-3.3c0-.1.8-11.7.8-11.7h11.2v2.3h-7.8c-.5,0-.8.3-.9.8l-.4,5.2c0,.3.1.7.4.8.3.2.6.2.9,0,.8-.5,1.3-.8,1.5-.9.6-.2,1.3-.3,2.2-.3,1.8,0,3.3.6,4.6,1.8,1.3,1.2,1.9,2.9,1.9,5.2s-.6,3.8-1.9,5.4c-1.3,1.5-3.1,2.3-5.7,2.3s-3.7-.5-5.1-1.6c-1.1-.9-1.8-2.1-2-3.7h3,0Z"/>
      <path class="cls-1" d="M67.9,16.9h-2.1c-.2,0-.4,0-.5.1v-7.1c0-2.3-1.9-4.3-4.3-4.3s-4.3,1.9-4.3,4.3v7c0,0-.2,0-.2,0h-29.2c-.1,0-.2,0-.3,0v-7c0-2.3-1.9-4.3-4.3-4.3s-4.3,1.9-4.3,4.3v7c-.1,0-.3,0-.4,0h-2.1c-4,0-7.3,3.3-7.3,7.3v46.7c0,4,3.3,7.3,7.3,7.3h51.9c4,0,7.3-3.3,7.3-7.3V24.2c0-4-3.3-7.3-7.3-7.3h0ZM59.2,9.9c0-1,.8-1.9,1.9-1.9s1.9.8,1.9,1.9v12.8c0,1-.8,1.9-1.9,1.9s-1.9-.8-1.9-1.9v-12.8ZM20.9,9.9c0-1,.8-1.9,1.9-1.9s1.9.8,1.9,1.9v12.8c0,1-.8,1.9-1.9,1.9s-1.9-.8-1.9-1.9v-12.8ZM72.7,70.9c0,2.6-2.1,4.8-4.8,4.8H16c-2.6,0-4.8-2.1-4.8-4.8V24.2c0-2.6,2.1-4.8,4.8-4.8h.8v2.5c0,3.3,2.7,5.9,5.9,5.9s5.9-2.7,5.9-5.9v-2.5h26.6v2.5c0,3.3,2.7,5.9,5.9,5.9s5.9-2.7,5.9-5.9v-2.5h.8c2.6,0,4.8,2.1,4.8,4.8v46.7h0Z"/>
      <path class="cls-1" d="M68.9,35.5H15.2c-.7,0-1.3.6-1.3,1.3v31.7c0,2.4,2,4.5,4.5,4.5h47.4c2.4,0,4.5-2,4.5-4.5v-31.7c0-.7-.6-1.3-1.3-1.3h0ZM67.6,68.5c0,1-.8,1.9-1.9,1.9H18.4c-1,0-1.9-.8-1.9-1.9v-30.4h51.1v30.4Z"/>
    </g>
  </g>
</svg>