<?xml version="1.0" encoding="UTF-8"?>
<svg id="Layer_1" data-name="Layer 1" xmlns="http://www.w3.org/2000/svg" version="1.1" viewBox="0 0 83.9 83.9">
  <defs>
    <style>
      .cls-1 {
        fill: #231f20;
        stroke-width: 0px;
      }
    </style>
  </defs>
  <g id="Layer_1-2" data-name="Layer 1-2">
    <g>
      <path class="cls-1" d="M13.9,63.9h36.5l18.8,12.6c.3.2.7.3,1.1.3s.6,0,.9-.2c.7-.4,1.1-1,1.1-1.8v-12c3.7-1.6,8.1-4.9,8.1-9.4V17.5c0-5.7-4.7-10.4-10.4-10.4H13.9c-5.7,0-10.4,4.7-10.4,10.4v36c0,5.7,4.7,10.4,10.4,10.4h0ZM7.5,17.5c0-3.5,2.9-6.4,6.4-6.4h56.1c3.5,0,6.4,2.9,6.4,6.4v36c0,2.4-3.5,5.1-6.7,6.1-.8.3-1.4,1-1.4,1.9v9.6l-16.2-10.9c-.3-.2-.7-.3-1.1-.3H13.9c-3.5,0-6.4-2.9-6.4-6.4V17.5Z"/>
      <path class="cls-1" d="M18.2,28h47.4c2.1,0,3.8-1.7,3.8-3.8s-1.7-3.8-3.8-3.8H18.2c-2.1,0-3.8,1.7-3.8,3.8s1.7,3.8,3.8,3.8ZM18.2,22.9h47.4c.8,0,1.4.6,1.4,1.4s-.6,1.4-1.4,1.4H18.2c-.8,0-1.4-.6-1.4-1.4s.6-1.4,1.4-1.4Z"/>
      <path class="cls-1" d="M18.2,39.1h47.4c2.1,0,3.8-1.7,3.8-3.8s-1.7-3.8-3.8-3.8H18.2c-2.1,0-3.8,1.7-3.8,3.8s1.7,3.8,3.8,3.8ZM18.2,33.9h47.4c.8,0,1.4.6,1.4,1.4s-.6,1.4-1.4,1.4H18.2c-.8,0-1.4-.6-1.4-1.4s.6-1.4,1.4-1.4Z"/>
      <path class="cls-1" d="M18.2,49.8h47.4c2.1,0,3.8-1.7,3.8-3.8s-1.7-3.8-3.8-3.8H18.2c-2.1,0-3.8,1.7-3.8,3.8s1.7,3.8,3.8,3.8ZM18.2,44.6h47.4c.8,0,1.4.6,1.4,1.4s-.6,1.4-1.4,1.4H18.2c-.8,0-1.4-.6-1.4-1.4s.6-1.4,1.4-1.4Z"/>
    </g>
  </g>
</svg>