<?xml version="1.0" encoding="utf-8"?>
<!-- Generator: Adobe Illustrator 23.0.3, SVG Export Plug-In . SVG Version: 6.00 Build 0)  -->
<svg version="1.1" id="Layer_1" xmlns="http://www.w3.org/2000/svg" xmlns:xlink="http://www.w3.org/1999/xlink" x="0px" y="0px"
	 viewBox="0 0 83.9 83.9" enable-background="new 0 0 83.9 83.9" xml:space="preserve">
<g>
	<g>
		<g>
			<path fill="#F9207B" d="M49,73.6H19.7c-0.5,0-1-0.4-1-1V13.4c0-0.5,0.4-1,1-1h44c0.3,0,0.5,0.1,0.7,0.3c0.2,0.2,0.3,0.4,0.3,0.7
				L64.5,58c0,0.3-0.1,0.5-0.3,0.7L49.7,73.4C49.5,73.5,49.3,73.6,49,73.6z M20.6,71.7h28l13.9-14.1l0.2-43.2H20.6V71.7z"/>
		</g>
	</g>
	<g>
		<g>
			<path fill="#F9207B" d="M49,73.6c-0.1,0-0.2,0-0.4-0.1c-0.4-0.1-0.6-0.5-0.6-0.9v-7.3c0-5.8,2.5-8.3,8.2-8.3h7.2
				c0.4,0,0.7,0.2,0.9,0.6c0.1,0.4,0.1,0.8-0.2,1L49.7,73.4C49.5,73.5,49.3,73.6,49,73.6z M56.3,59c-4.6,0-6.3,1.7-6.3,6.4v4.9
				L61.2,59H56.3z"/>
		</g>
	</g>
	<g>
		<g>
			<rect x="19.8" y="13.4" fill-rule="evenodd" clip-rule="evenodd" fill="#F9207B" width="43.8" height="14.8"/>
		</g>
	</g>
	<g>
		<path fill="#FEFEFE" d="M33.9,25h-1.7v-1.5h1.7V25z M37.1,23.8h3.8V25h-5.7v-0.8l3.7-5.8h-3.7v-1.2h5.6V18L37.1,23.8z M43.6,25
			h-1.6v-7.9h1.6V25z M46.7,22.2V25h-1.6v-7.9h3.1c0.9,0,1.6,0.2,2.1,0.7c0.5,0.5,0.8,1.1,0.8,1.8c0,0.8-0.3,1.4-0.8,1.8
			c-0.5,0.5-1.2,0.7-2.1,0.7H46.7z M46.7,21h1.5c0.4,0,0.8-0.1,1-0.4c0.2-0.2,0.3-0.5,0.3-0.9c0-0.4-0.1-0.7-0.3-0.9
			c-0.2-0.2-0.5-0.4-1-0.4h-1.5V21z"/>
	</g>
	<g>
		<g>
			<path fill="#F9207B" d="M36.6,33h-7.3c-0.5,0-1-0.4-1-1c0-0.5,0.4-1,1-1h7.3c0.5,0,1,0.4,1,1C37.6,32.5,37.2,33,36.6,33z"/>
		</g>
	</g>
	<g>
		<g>
			<path fill="#F9207B" d="M36.6,37h-7.3c-0.5,0-1-0.4-1-1c0-0.5,0.4-1,1-1h7.3c0.5,0,1,0.4,1,1C37.6,36.6,37.2,37,36.6,37z"/>
		</g>
	</g>
	<g>
		<g>
			<path fill="#F9207B" d="M33,54.2c-0.5,0-1-0.4-1-1V26.9c0-0.5,0.4-1,1-1c0.5,0,1,0.4,1,1v26.3C34,53.7,33.6,54.2,33,54.2z"/>
		</g>
	</g>
	<g>
		<g>
			<path fill="#F9207B" d="M36.6,41.1h-7.3c-0.5,0-1-0.4-1-1c0-0.5,0.4-1,1-1h7.3c0.5,0,1,0.4,1,1C37.6,40.7,37.2,41.1,36.6,41.1z"
				/>
		</g>
	</g>
	<g>
		<g>
			<path fill="#F9207B" d="M36.6,45.2h-7.3c-0.5,0-1-0.4-1-1c0-0.5,0.4-1,1-1h7.3c0.5,0,1,0.4,1,1C37.6,44.8,37.2,45.2,36.6,45.2z"
				/>
		</g>
	</g>
	<g>
		<g>
			<path fill="#F9207B" d="M36.6,49.3h-7.3c-0.5,0-1-0.4-1-1c0-0.5,0.4-1,1-1h7.3c0.5,0,1,0.4,1,1C37.6,48.8,37.2,49.3,36.6,49.3z"
				/>
		</g>
	</g>
	<g>
		<g>
			<path fill="#F9207B" d="M33,68.9c-1.7,0-3.5-0.8-4.6-2.1c-1-1.2-1.5-2.6-1.3-4.1l1.1-9.7c0.1-0.5,0.5-0.9,1-0.9h7.8
				c0.5,0,0.9,0.4,1,0.9l1.1,9.7c0.2,1.5-0.3,2.9-1.3,4.1C36.5,68.1,34.8,68.9,33,68.9z M30,54.2L29,63c-0.1,0.9,0.2,1.8,0.9,2.5
				c0.8,0.9,2,1.4,3.2,1.4c1.2,0,2.4-0.5,3.2-1.4c0.7-0.7,1-1.6,0.9-2.6l-1-8.8H30z"/>
		</g>
	</g>
	<g>
		<g>
			<path fill="#F9207B" d="M33,65.8c-1,0-2-0.4-2.6-1.2c-0.6-0.6-0.8-1.4-0.7-2.2l0.3-1.7c0.1-0.5,0.5-0.8,0.9-0.8h4
				c0.5,0,0.9,0.3,1,0.8l0.3,1.7c0.1,0.8-0.1,1.6-0.7,2.3C35,65.4,34,65.8,33,65.8z M31.8,61.8l-0.1,0.9c0,0.2,0,0.5,0.2,0.7
				c0.3,0.3,0.7,0.5,1.1,0.5c0.4,0,0.8-0.2,1.1-0.5c0.1-0.2,0.3-0.4,0.2-0.7l-0.1-0.9H31.8z"/>
		</g>
	</g>
</g>
</svg>
