<?xml version="1.0" encoding="UTF-8"?>
<svg id="Layer_1" data-name="Layer 1" xmlns="http://www.w3.org/2000/svg" version="1.1" viewBox="0 0 83.9 83.9">
  <defs>
    <style>
      .cls-1 {
        fill: #231f20;
        stroke-width: 0px;
      }
    </style>
  </defs>
  <g id="Layer_1-2" data-name="Layer 1-2">
    <g>
      <path class="cls-1" d="M55.9,78.3h0c.3,0,.7-.1.9-.4l14.6-13.9c.3-.3.4-.6.4-1,.1-.2.2-.5.2-.8V11c0-3.2-2.6-5.8-5.8-5.8H17.6c-3.2,0-5.8,2.6-5.8,5.8v61.9c0,3.2,2.6,5.8,5.8,5.8h37.3c.4,0,.7-.1,1-.4h0ZM57.3,73.8v-5.3c0-2.2,1.8-4,4-4h5.9l-9.8,9.3h0ZM53.3,75.5H17.6c-1.4,0-2.6-1.2-2.6-2.6V11c0-1.4,1.2-2.6,2.6-2.6h48.8c1.4,0,2.6,1.2,2.6,2.6v49.7h-7.5c-4.5,0-8.2,3.7-8.2,8.2v6.6Z"/>
      <path class="cls-1" d="M24.3,26.6h35.4c.9,0,1.6-.7,1.6-1.6v-2.9c0-.9-.7-1.6-1.6-1.6H24.3c-.9,0-1.6.7-1.6,1.6v2.9c0,.9.7,1.6,1.6,1.6ZM24.6,22.4h34.7v2.2H24.6s0-2.2,0-2.2Z"/>
      <path class="cls-1" d="M24.3,36.7h35.4c.9,0,1.6-.7,1.6-1.6v-2.9c0-.9-.7-1.6-1.6-1.6H24.3c-.9,0-1.6.7-1.6,1.6v2.9c0,.9.7,1.6,1.6,1.6ZM24.6,32.5h34.7v2.2H24.6v-2.2Z"/>
      <path class="cls-1" d="M61.2,45.2v-2.9c0-.9-.7-1.6-1.6-1.6H24.3c-.9,0-1.6.7-1.6,1.6v2.9c0,.9.7,1.6,1.6,1.6h35.4c.9,0,1.6-.7,1.6-1.6ZM59.3,44.8H24.6v-2.2h34.7v2.2Z"/>
    </g>
  </g>
</svg>