<?xml version="1.0" encoding="utf-8"?>
<!-- Generator: Adobe Illustrator 23.0.3, SVG Export Plug-In . SVG Version: 6.00 Build 0)  -->
<svg version="1.1" id="Layer_1" xmlns="http://www.w3.org/2000/svg" xmlns:xlink="http://www.w3.org/1999/xlink" x="0px" y="0px"
	 viewBox="0 0 83.9 83.9" enable-background="new 0 0 83.9 83.9" xml:space="preserve">
<g>
	<g>
		<path fill="#70C500" d="M49,74H19.7c-0.5,0-1-0.4-1-1V13.8c0-0.5,0.4-1,1-1h44c0.3,0,0.5,0.1,0.7,0.3c0.2,0.2,0.3,0.4,0.3,0.7
			l-0.2,44.6c0,0.3-0.1,0.5-0.3,0.7L49.7,73.7C49.5,73.9,49.3,74,49,74z M20.6,72.1h28L62.5,58l0.2-43.3H20.6V72.1z"/>
	</g>
	<g>
		<path fill="#70C500" d="M49,74c-0.1,0-0.2,0-0.4-0.1C48.3,73.8,48,73.4,48,73v-7.3c0-5.7,2.5-8.3,8.2-8.3h7.2
			c0.4,0,0.7,0.2,0.9,0.6c0.1,0.4,0.1,0.8-0.2,1L49.7,73.7C49.5,73.9,49.3,74,49,74z M56.3,59.3c-4.6,0-6.3,1.7-6.3,6.4v5l11.2-11.3
			H56.3z"/>
	</g>
	<g>
		<rect x="19.8" y="13.8" fill-rule="evenodd" clip-rule="evenodd" fill="#70C500" width="43.8" height="14.8"/>
	</g>
	<g>
		<path fill="#FEFEFE" d="M32.4,25.4h-1.7v-1.5h1.7V25.4z M36.7,20.3l1.5-2.8H40l-2.3,3.9l2.4,4h-1.9l-1.5-2.8l-1.5,2.8h-1.8l2.4-4
			l-2.3-3.9h1.8L36.7,20.3z M42.5,24.2H46v1.2h-5v-7.9h1.6V24.2z M51.1,23.3c0-0.3-0.1-0.5-0.3-0.7c-0.2-0.2-0.6-0.4-1.1-0.5
			c-0.9-0.3-1.6-0.6-2.1-1c-0.5-0.4-0.7-0.9-0.7-1.5c0-0.6,0.3-1.2,0.8-1.6c0.5-0.4,1.2-0.6,2.1-0.6c0.9,0,1.6,0.2,2.1,0.7
			c0.5,0.5,0.8,1,0.8,1.7l0,0h-1.5c0-0.4-0.1-0.7-0.4-0.9c-0.2-0.2-0.6-0.3-1-0.3s-0.7,0.1-1,0.3c-0.2,0.2-0.3,0.4-0.3,0.7
			c0,0.3,0.1,0.5,0.4,0.7c0.2,0.2,0.7,0.3,1.3,0.5c0.9,0.2,1.5,0.6,1.9,1c0.4,0.4,0.7,0.9,0.7,1.5c0,0.7-0.3,1.2-0.8,1.6
			c-0.5,0.4-1.2,0.6-2.1,0.6c-0.8,0-1.6-0.2-2.2-0.7c-0.6-0.4-0.9-1.1-0.9-1.8l0,0h1.5c0,0.5,0.1,0.8,0.4,1c0.3,0.2,0.7,0.3,1.2,0.3
			c0.4,0,0.7-0.1,1-0.3C51,23.9,51.1,23.6,51.1,23.3L51.1,23.3z"/>
	</g>
	<g>
		<path fill="#70C500" d="M59.5,41.4H23.9c-0.4,0-0.8-0.4-0.8-0.8V35c0-0.4,0.4-0.8,0.8-0.8h35.6c0.4,0,0.8,0.4,0.8,0.8v5.6
			C60.3,41,59.9,41.4,59.5,41.4z M24.7,39.8h34v-4h-34V39.8z"/>
	</g>
	<g>
		<path fill="#70C500" d="M59.5,47H23.9c-0.4,0-0.8-0.4-0.8-0.8v-5.6c0-0.4,0.4-0.8,0.8-0.8h35.6c0.4,0,0.8,0.4,0.8,0.8v5.6
			C60.3,46.7,59.9,47,59.5,47z M24.7,45.4h34v-4h-34V45.4z"/>
	</g>
	<g>
		<path fill="#70C500" d="M59.5,52.6H23.9c-0.4,0-0.8-0.4-0.8-0.8v-5.6c0-0.4,0.4-0.8,0.8-0.8h35.6c0.4,0,0.8,0.4,0.8,0.8v5.6
			C60.3,52.3,59.9,52.6,59.5,52.6z M24.7,51h34v-4h-34V51z"/>
	</g>
	<g>
		<path fill="#70C500" d="M48.5,52.6H34.8c-0.4,0-0.8-0.4-0.8-0.8V35c0-0.4,0.4-0.8,0.8-0.8h13.7c0.4,0,0.8,0.4,0.8,0.8v16.9
			C49.3,52.3,48.9,52.6,48.5,52.6z M35.6,51h12.1V35.8H35.6V51z"/>
	</g>
</g>
</svg>
