<?xml version="1.0" encoding="utf-8"?>
<!-- Generator: Adobe Illustrator 23.0.3, SVG Export Plug-In . SVG Version: 6.00 Build 0)  -->
<svg version="1.1" id="Layer_1" xmlns="http://www.w3.org/2000/svg" xmlns:xlink="http://www.w3.org/1999/xlink" x="0px" y="0px"
	 viewBox="0 0 83.9 83.9" enable-background="new 0 0 83.9 83.9" xml:space="preserve">
<g>
	<g>
		<path fill="#F9207B" d="M49.1,74H19.8c-0.5,0-1-0.4-1-1V13.8c0-0.5,0.4-1,1-1h44c0.3,0,0.5,0.1,0.7,0.3c0.2,0.2,0.3,0.4,0.3,0.7
			l-0.2,44.6c0,0.3-0.1,0.5-0.3,0.7L49.8,73.7C49.6,73.9,49.4,74,49.1,74z M20.7,72.1h28L62.6,58l0.2-43.2H20.7V72.1z"/>
	</g>
	<g>
		<path fill="#F9207B" d="M49.1,74c-0.1,0-0.2,0-0.4-0.1c-0.4-0.1-0.6-0.5-0.6-0.9v-7.3c0-5.8,2.5-8.3,8.2-8.3h7.2
			c0.4,0,0.7,0.2,0.9,0.6c0.1,0.4,0.1,0.8-0.2,1L49.8,73.7C49.6,73.9,49.3,74,49.1,74z M56.4,59.3c-4.6,0-6.3,1.7-6.3,6.4v5
			l11.2-11.4H56.4z"/>
	</g>
	<g>
		<rect x="19.8" y="13.8" fill-rule="evenodd" clip-rule="evenodd" fill="#F9207B" width="43.8" height="14.8"/>
	</g>
	<g>
		<path fill="#FEFEFE" d="M32.1,25.4h-1.7v-1.5h1.7V25.4z M37,17.5h1.6V23c0,0.8-0.2,1.4-0.7,1.8c-0.5,0.4-1.1,0.7-1.9,0.7
			c-0.8,0-1.5-0.2-1.9-0.6c-0.5-0.4-0.7-1-0.7-1.8l0,0h1.5c0,0.4,0.1,0.7,0.3,0.9c0.2,0.2,0.5,0.3,0.8,0.3c0.3,0,0.5-0.1,0.7-0.3
			c0.2-0.2,0.3-0.5,0.3-0.9V17.5z M41.5,22.5v2.8H40v-7.9h3.1c0.9,0,1.6,0.2,2.1,0.7c0.5,0.5,0.8,1.1,0.8,1.8c0,0.8-0.2,1.4-0.8,1.8
			c-0.5,0.5-1.2,0.7-2.1,0.7H41.5z M41.5,21.3h1.5c0.4,0,0.8-0.1,1-0.4c0.2-0.2,0.3-0.5,0.3-0.9c0-0.4-0.1-0.7-0.3-0.9
			c-0.2-0.2-0.5-0.4-1-0.4h-1.5V21.3z M53.1,24.3c-0.2,0.3-0.6,0.6-1.1,0.8c-0.5,0.2-1.1,0.4-1.9,0.4c-1,0-1.7-0.3-2.3-0.9
			c-0.6-0.6-0.9-1.4-0.9-2.3v-1.6c0-1,0.3-1.7,0.9-2.3c0.6-0.6,1.3-0.9,2.2-0.9c1,0,1.7,0.2,2.2,0.7c0.5,0.5,0.8,1.1,0.8,1.8v0h-1.5
			c0-0.4-0.2-0.7-0.4-1c-0.2-0.2-0.6-0.4-1-0.4c-0.5,0-0.9,0.2-1.2,0.6c-0.3,0.4-0.4,0.8-0.4,1.4v1.6c0,0.6,0.1,1.1,0.4,1.5
			c0.3,0.4,0.7,0.6,1.2,0.6c0.4,0,0.7,0,0.9-0.1c0.2-0.1,0.4-0.2,0.5-0.3v-1.5h-1.4v-1.1h3V24.3z"/>
	</g>
	<g>
		<path fill="#F9207B" d="M27.5,41.5c-2.5,0-4.5-2.1-4.5-4.6c0-2.5,2-4.6,4.5-4.6c2.5,0,4.6,2,4.6,4.6C32.1,39.4,30,41.5,27.5,41.5z
			 M27.5,34.3c-1.4,0-2.6,1.2-2.6,2.6c0,1.5,1.2,2.7,2.6,2.7c1.4,0,2.6-1.2,2.6-2.7C30.2,35.4,29,34.3,27.5,34.3z"/>
	</g>
	<g>
		<path fill="#F9207B" d="M59.4,54.9H24.1c-0.4,0-0.7-0.2-0.9-0.6c-0.2-0.3-0.1-0.7,0.1-1l11.7-14.2c0.3-0.4,0.9-0.5,1.3-0.2
			l4.8,3.6l10.1-8.9c0.2-0.2,0.5-0.3,0.7-0.2c0.3,0,0.5,0.1,0.7,0.3l7.5,8.9c0.1,0.2,0.2,0.4,0.2,0.6l0,10.6c0,0.3-0.1,0.5-0.3,0.7
			C59.9,54.8,59.7,54.9,59.4,54.9z M26.1,53h32.3l0-9.3l-6.6-7.9l-9.9,8.7c-0.3,0.3-0.8,0.3-1.2,0.1L36,41.1L26.1,53z"/>
	</g>
</g>
</svg>
