<?xml version="1.0" encoding="UTF-8"?>
<svg id="Layer_1" data-name="Layer 1" xmlns="http://www.w3.org/2000/svg" version="1.1" viewBox="0 0 83.9 83.9">
  <defs>
    <style>
      .cls-1 {
        fill: #231f20;
        stroke-width: 0px;
      }
    </style>
  </defs>
  <g id="Layer_1-2" data-name="Layer 1-2">
    <g>
      <path class="cls-1" d="M80.5,34.1l-9.5-2.2v-15.7c0-.7-.6-1.4-1.4-1.4H3.7c-.7,0-1.4.6-1.4,1.4v35.5c0,.8.6,1.4,1.4,1.4h5.7,0c0,.5,0,.9.2,1.2.2.3.5.5.9.6l.7.2,61.4,14.2s.1,0,.2,0c.6,0,1.1-.4,1.3-1l6.1-26.7,1.3-5.7c0-.4,0-.7-.2-1-.2-.3-.5-.5-.9-.6h0ZM71,44.1h0,0c0,.1,0,0,0,0h0ZM45.8,54.8c1.9,0,3.8-.5,5.4-1.6.1,0,.2-.1.3-.2h17.4l-.7,2.9c-.2,0-.4,0-.6,0-2.7,0-5.2,1.4-6.6,3.8-.2.3-.4.7-.5,1.1l-33.4-7.7h12.9c.3.2.5.3.8.5.2.1.4.2.6.3.6.3,1.3.5,2,.7.8.2,1.6.3,2.3.3h0ZM44.2,53h3.2c-1,.2-2.1.2-3.2,0ZM5,50.3V17.5h63.2v32.8H5ZM71.8,66.1l-56.9-13.1h8.6c0,.3.2.5.5.5l37,8.6s0,0,.1,0c.3,0,.5-.2.6-.5.8-2.7,3.2-4.5,5.8-4.5.4,0,.8,0,1.2,0,.3,0,.7-.1.7-.5l.9-4c.1,0,.2-.1.3-.2.2-.2.4-.6.4-1v-1.7l1.4-6.1c0-.3-.1-.7-.4-.8-.3,0-.7-.2-1-.4v-8l7.6,1.8-6.8,29.7h0Z"/>
      <path class="cls-1" d="M63,26.1c-3.3-.2-5.9-2.9-6-6.3,0-.4-.3-.6-.7-.6H17c-.4,0-.7.3-.7.6-.2,3.4-2.8,6.1-6,6.3-.4,0-.6.3-.6.7v14.1c0,.4.3.7.6.7,3.3.2,5.9,2.9,6,6.3,0,.4.3.6.7.6h39.4c.4,0,.7-.3.7-.6.2-3.4,2.8-6.1,6-6.3.4,0,.6-.3.6-.7v-14.1c0-.4-.3-.7-.6-.7ZM62.3,40.4c-3.5.5-6.2,3.3-6.6,6.9H17.6c-.4-3.6-3.2-6.4-6.6-6.9v-12.9c3.5-.5,6.2-3.3,6.6-6.9h38.1c.4,3.6,3.1,6.4,6.6,6.9v12.9Z"/>
      <path class="cls-1" d="M37,22.9c-5.9,0-10.6,4.9-10.6,11s4.8,11,10.6,11,10.6-4.9,10.6-11-4.8-11-10.6-11ZM37,43.2c-4.9,0-8.9-4.1-8.9-9.3s4-9.3,8.9-9.3,8.9,4.1,8.9,9.3-4,9.3-8.9,9.3Z"/>
    </g>
  </g>
</svg>