<?xml version="1.0" encoding="utf-8"?>
<!-- Generator: Adobe Illustrator 23.0.3, SVG Export Plug-In . SVG Version: 6.00 Build 0)  -->
<svg version="1.1" id="Layer_1" xmlns="http://www.w3.org/2000/svg" xmlns:xlink="http://www.w3.org/1999/xlink" x="0px" y="0px"
	 viewBox="0 0 83.9 83.9" enable-background="new 0 0 83.9 83.9" xml:space="preserve">
<g>
	<g>
		<path fill="#343434" d="M49.1,73.8H19.8c-0.5,0-1-0.4-1-1V13.6c0-0.5,0.4-1,1-1h44c0.3,0,0.5,0.1,0.7,0.3c0.2,0.2,0.3,0.4,0.3,0.7
			l-0.2,44.6c0,0.3-0.1,0.5-0.3,0.7L49.8,73.5C49.6,73.7,49.4,73.8,49.1,73.8z M20.7,71.9h28l13.9-14.1l0.2-43.3H20.7V71.9z"/>
	</g>
	<g>
		<path fill="#343434" d="M49.1,73.8c-0.1,0-0.2,0-0.4-0.1c-0.4-0.1-0.6-0.5-0.6-0.9v-7.3c0-5.7,2.5-8.3,8.2-8.3h7.2
			c0.4,0,0.7,0.2,0.9,0.6c0.1,0.4,0.1,0.8-0.2,1L49.8,73.5C49.6,73.7,49.3,73.8,49.1,73.8z M56.4,59.2c-4.6,0-6.3,1.7-6.3,6.4v5
			l11.2-11.3H56.4z"/>
	</g>
	<g>
		<rect x="19.8" y="13.6" fill-rule="evenodd" clip-rule="evenodd" fill="#343434" width="43.8" height="14.8"/>
	</g>
	<g>
		<path fill="#343434" d="M56.4,38.6h-9.7c-0.5,0-1-0.4-1-1c0-0.5,0.4-1,1-1h9.7c0.5,0,1,0.4,1,1C57.4,38.2,57,38.6,56.4,38.6z"/>
	</g>
	<g>
		<path fill="#343434" d="M56.4,45.4H27.1c-0.5,0-1-0.4-1-1c0-0.5,0.4-1,1-1h29.3c0.5,0,1,0.4,1,1C57.4,45,57,45.4,56.4,45.4z"/>
	</g>
	<g>
		<path fill="#343434" d="M56.4,52.2H38.5c-0.5,0-1-0.4-1-1c0-0.5,0.4-1,1-1h17.9c0.5,0,1,0.4,1,1C57.4,51.8,57,52.2,56.4,52.2z"/>
	</g>
	<g>
		<path fill="#343434" d="M41.8,59H27.1c-0.5,0-1-0.4-1-1c0-0.5,0.4-1,1-1h14.7c0.5,0,1,0.4,1,1C42.7,58.6,42.3,59,41.8,59z"/>
	</g>
	<g>
		<path fill="#343434" d="M40.5,38.6H27.1c-0.5,0-1-0.4-1-1c0-0.5,0.4-1,1-1h13.4c0.5,0,1,0.4,1,1C41.4,38.2,41,38.6,40.5,38.6z"/>
	</g>
	<g>
		<path fill="#343434" d="M34.3,52.2h-7.2c-0.5,0-1-0.4-1-1c0-0.5,0.4-1,1-1h7.2c0.5,0,1,0.4,1,1C35.3,51.8,34.8,52.2,34.3,52.2z"/>
	</g>
</g>
</svg>
