<?xml version="1.0" encoding="utf-8"?>
<!-- Generator: Adobe Illustrator 23.0.3, SVG Export Plug-In . SVG Version: 6.00 Build 0)  -->
<svg version="1.1" id="Layer_1" xmlns="http://www.w3.org/2000/svg" xmlns:xlink="http://www.w3.org/1999/xlink" x="0px" y="0px"
	 viewBox="0 0 83.9 83.9" enable-background="new 0 0 83.9 83.9" xml:space="preserve">
<g>
	<g>
		<g>
			<path fill="#F71F3D" d="M50,73.2H20.7c-0.5,0-1-0.4-1-1V12.9c0-0.5,0.4-1,1-1h44c0.3,0,0.5,0.1,0.7,0.3c0.2,0.2,0.3,0.4,0.3,0.7
				l-0.2,44.6c0,0.3-0.1,0.5-0.3,0.7L50.7,72.9C50.5,73.1,50.3,73.2,50,73.2z M21.6,71.2h28l13.9-14.1l0.2-43.3H21.6V71.2z"/>
		</g>
	</g>
	<g>
		<g>
			<path fill="#F71F3D" d="M50,73.2c-0.1,0-0.2,0-0.4-0.1c-0.4-0.1-0.6-0.5-0.6-0.9v-7.3c0-5.8,2.5-8.3,8.2-8.3h7.2
				c0.4,0,0.7,0.2,0.9,0.6c0.1,0.4,0.1,0.8-0.2,1L50.7,72.9C50.5,73.1,50.3,73.2,50,73.2z M57.3,58.5c-4.6,0-6.3,1.7-6.3,6.4v5
				l11.2-11.4H57.3z"/>
		</g>
	</g>
	<g>
		<g>
			<rect x="20.8" y="12.9" fill-rule="evenodd" clip-rule="evenodd" fill="#F71F3D" width="43.8" height="14.8"/>
		</g>
	</g>
	<g>
		<path fill="#FEFEFE" d="M33.9,24.5h-1.7v-1.5h1.7V24.5z M37.2,21.5v3.1h-1.7v-8.4h3.3c1,0,1.7,0.3,2.3,0.8
			c0.5,0.5,0.8,1.1,0.8,1.9c0,0.8-0.3,1.5-0.8,1.9c-0.6,0.5-1.3,0.7-2.3,0.7H37.2z M37.2,20.2h1.7c0.5,0,0.8-0.1,1-0.4
			c0.2-0.2,0.4-0.6,0.4-1c0-0.4-0.1-0.7-0.4-1c-0.2-0.3-0.6-0.4-1-0.4h-1.7V20.2z M43.2,24.5v-8.4H46c1,0,1.9,0.3,2.5,1
			c0.7,0.6,1,1.5,1,2.5V21c0,1-0.3,1.9-1,2.5c-0.7,0.7-1.5,1-2.5,1H43.2z M44.9,17.4v5.8H46c0.6,0,1.1-0.2,1.4-0.6
			c0.3-0.4,0.5-0.9,0.5-1.6v-1.4c0-0.7-0.2-1.2-0.5-1.6c-0.3-0.4-0.8-0.6-1.4-0.6H44.9z M56,21h-3.5v3.5h-1.7v-8.4h5.7v1.3h-4.1v2.3
			H56V21z"/>
	</g>
	<g>
		<g>
			<path fill="#F71F3D" d="M50.6,49.2c-0.9,0-2.1,0.1-3.4,0.4c-1.9-2-3.8-4.9-5.1-7.7c1.3-5.8,0.7-6.6,0.4-6.9
				c-0.3-0.4-0.8-1.1-1.3-1.1c-0.2,0-0.8,0.1-1,0.2c-0.6,0.2-0.9,0.7-1.2,1.2c-0.7,1.7,0.3,4.6,1.3,6.8c-0.9,3.5-2.3,7.6-3.8,11
				c-3.8,1.8-5.9,3.5-6,5.2c-0.1,0.6,0.1,1.5,1.1,2.3c0.3,0.2,0.6,0.3,1,0.3c0.9,0,1.8-0.7,2.8-2.2c0.7-1.1,1.6-2.5,2.4-4.3
				c2.7-1.2,6.1-2.3,8.9-2.9c1.6,1.5,3,2.3,4.3,2.3c0.9,0,1.7-0.4,2.2-1.2c0.6-0.8,0.7-1.6,0.4-2.2C53.1,49.6,52.2,49.2,50.6,49.2
				L50.6,49.2z M32.5,59.1c-0.5-0.4-0.4-0.6-0.4-0.7c0.1-0.6,0.9-1.6,3.1-2.8C33.5,58.7,32.6,59.1,32.5,59.1L32.5,59.1z M40.8,35.7
				c0.1,0,1.1,1.1,0.1,3.3C39.4,37.5,40.7,35.7,40.8,35.7L40.8,35.7z M38.7,52.1c1-2.5,2-5.2,2.7-7.7c1.1,2.1,2.5,4.1,3.9,5.7
				C43.1,50.5,40.8,51.3,38.7,52.1L38.7,52.1z M51.8,51.6c-0.3,0.4-1,0.4-1.2,0.4c-0.5,0-0.7-0.3-1.6-1c0.7-0.1,1.3-0.1,1.8-0.1
				c0.9,0,1,0.1,1.2,0.2C52,51.2,51.9,51.4,51.8,51.6L51.8,51.6z"/>
		</g>
	</g>
</g>
</svg>
