<?xml version="1.0" encoding="UTF-8"?>
<svg id="Layer_1" data-name="Layer 1" xmlns="http://www.w3.org/2000/svg" version="1.1" viewBox="0 0 83.9 83.9">
  <defs>
    <style>
      .cls-1 {
        fill: #231f20;
        stroke: #231f20;
        stroke-miterlimit: 10;
      }
    </style>
  </defs>
  <g id="Layer_1-2" data-name="Layer 1-2">
    <g>
      <path class="cls-1" d="M80.8,60.4c0-.5.3-11.4-6.5-17.6-.5-.4-1.2-.5-1.7,0,0,0-8,6-15.4,0-.5-.4-1.2-.4-1.7,0-.2.1-2.3,2.1-4.2,5.8-.4-.2-.9-.1-1.3.2-.3.3-8.1,6-15.4,0-.4-.3-.8-.4-1.2-.2-.9-2-2.3-4-4.1-5.7-.5-.4-1.2-.5-1.7,0,0,0-8,6-15.4,0-.5-.4-1.2-.4-1.7,0-.3.2-6.9,6.1-7,17.6,0,.4.1.7.4,1,.3.3.6.4.9.4h21.6c-.3,1.4-.4,3-.5,4.6,0,.4.1.7.4,1,.3.3.6.4.9.4h29.7c.7,0,1.3-.6,1.3-1.3,0-.2,0-2.1-.3-4.7h21.7c.7,0,1.3-.6,1.3-1.3h0ZM26.7,59H5.9c.5-7.2,3.8-11.8,5.3-13.5,7,4.9,14.2,1.5,16.8,0,1.4,1.5,2.4,3.2,3.1,5-1.3,1.7-3.2,4.5-4.4,8.5h0ZM28.4,65c.5-7.2,3.8-11.8,5.3-13.5,7,4.9,14.2,1.5,16.8,0,4,4.3,4.8,10.8,4.9,13.5h-27ZM57.2,59c-.7-2.8-1.9-5.8-4-8.4,1.1-2.4,2.4-4.1,3.2-5,7,4.9,14.2,1.5,16.8,0,4,4.3,4.8,10.8,4.9,13.5,0,0-20.9,0-20.9,0Z"/>
      <path class="cls-1" d="M64.5,16.2c-3.4,0-6.6,1.3-9,3.7-2,2-3.2,4.6-3.6,7.3-2.3-3.1-6-5-10.1-5s-6.6,1.3-9,3.7c-.3.3-.6.7-.9,1-.9-6.1-6.2-10.8-12.6-10.8s-6.6,1.3-9,3.7c-2.4,2.4-3.7,5.6-3.7,9,0,7,5.7,12.7,12.7,12.7h0c3.4,0,6.6-1.3,9-3.7.3-.3.6-.7.9-1,.9,6.1,6.2,10.8,12.6,10.8h0c3.4,0,6.6-1.3,9-3.7s3.2-4.6,3.6-7.3c2.3,3.1,6,5,10.1,5h0c3.4,0,6.6-1.3,9-3.7s3.7-5.6,3.7-9c0-7-5.7-12.7-12.7-12.7ZM26.4,36c-1.9,1.9-4.4,2.9-7.1,2.9h0c-5.5,0-10-4.5-10-10s1-5.2,2.9-7.1c1.9-1.9,4.4-2.9,7.1-2.9,5.5,0,10,4.5,10,10s-1,5.2-2.9,7.1ZM48.9,42c-1.9,1.9-4.4,2.9-7.1,2.9h0c-5.5,0-10-4.5-10-10s1-5.2,2.9-7.1,4.4-2.9,7.1-2.9c5.5,0,10,4.5,10,10s-1,5.2-2.9,7.1ZM71.6,36c-1.9,1.9-4.4,2.9-7.1,2.9h0c-5.5,0-10-4.5-10-10s1-5.2,2.9-7.1c1.9-1.9,4.4-2.9,7.1-2.9,5.5,0,10,4.5,10,10s-1,5.2-2.9,7.1Z"/>
    </g>
  </g>
</svg>