<?xml version="1.0" encoding="UTF-8"?>
<svg id="Layer_1" data-name="Layer 1" xmlns="http://www.w3.org/2000/svg" version="1.1" viewBox="0 0 83.9 83.9">
  <defs>
    <style>
      .cls-1 {
        fill: #000;
        stroke-width: 0px;
      }
    </style>
  </defs>
  <g id="Layer_1-2" data-name="Layer 1-2">
    <g>
      <path class="cls-1" d="M22.3,71.1h-5c.6,1.6,1.4,3.1,2.3,4.5h5.6c-1.2-1.4-2.2-2.8-3-4.5ZM68.1,56.2c-2.4-12-13.2-21.1-26.1-21.1s-23.7,9.1-26.1,21.1c-.3,1.5-.4,3-.5,4.5h4.5c0-1.6.2-3.1.6-4.5,2.3-9.5,11.1-16.7,21.4-16.7s19.1,7.1,21.4,16.7c.4,1.5.6,3,.6,4.5h4.5c-.1-1.5-.3-3.1-.5-4.5ZM61.7,71.1c-.8,1.6-1.8,3.2-3,4.5h5.6c.9-1.4,1.7-3,2.3-4.5h-5Z"/>
      <path class="cls-1" d="M63.4,56.2H20.6c-.4,1.5-.6,3-.6,4.5h44.1c-.1-1.5-.3-3.1-.6-4.5ZM63.4,56.2H20.6c-.4,1.5-.6,3-.6,4.5h44.1c-.1-1.5-.3-3.1-.6-4.5ZM72.8,56.2H11c-2.3,0-4.2,1.9-4.2,4.2v10.9c0,2.3,1.9,4.2,4.2,4.2h62c2.3,0,4.2-1.9,4.2-4.2v-10.8c0-2.3-1.9-4.3-4.3-4.3ZM72.6,71.1H11.2v-10.4h61.5v10.4ZM63.4,56.2H20.6c-.4,1.5-.6,3-.6,4.5h44.1c-.1-1.5-.3-3.1-.6-4.5ZM63.4,56.2H20.6c-.4,1.5-.6,3-.6,4.5h44.1c-.1-1.5-.3-3.1-.6-4.5Z"/>
      <path class="cls-1" d="M41.5,8.3c-6.8,0-12.4,5.5-12.4,12.4s5.5,12.4,12.4,12.4,12.4-5.5,12.4-12.4-5.5-12.4-12.4-12.4ZM41.5,27.9c-4,0-7.3-3.3-7.3-7.4s3.3-7.3,7.3-7.3,7.3,3.3,7.3,7.3-3.2,7.4-7.3,7.4Z"/>
    </g>
  </g>
</svg>