<?xml version="1.0" encoding="utf-8"?>
<!-- Generator: Adobe Illustrator 23.0.3, SVG Export Plug-In . SVG Version: 6.00 Build 0)  -->
<svg version="1.1" id="Layer_1" xmlns="http://www.w3.org/2000/svg" xmlns:xlink="http://www.w3.org/1999/xlink" x="0px" y="0px"
	 viewBox="0 0 83.9 83.9" enable-background="new 0 0 83.9 83.9" xml:space="preserve">
<g>
	<g>
		<g>
			<path fill="#FC7F01" d="M49.2,74H19.8c-0.5,0-1-0.4-1-1V13.8c0-0.5,0.4-1,1-1h44c0.3,0,0.5,0.1,0.7,0.3c0.2,0.2,0.3,0.4,0.3,0.7
				l-0.2,44.6c0,0.3-0.1,0.5-0.3,0.7L49.9,73.7C49.7,73.9,49.4,74,49.2,74z M20.8,72.1h28L62.7,58l0.2-43.3H20.8V72.1z"/>
		</g>
	</g>
	<g>
		<g>
			<path fill="#FC7F01" d="M49.2,74c-0.1,0-0.2,0-0.4-0.1c-0.4-0.2-0.6-0.5-0.6-0.9v-7.3c0-5.7,2.5-8.3,8.2-8.3h7.2
				c0.4,0,0.7,0.2,0.9,0.6c0.1,0.4,0.1,0.8-0.2,1L49.9,73.7C49.7,73.9,49.4,74,49.2,74z M56.5,59.3c-4.6,0-6.3,1.7-6.3,6.4v5
				l11.2-11.3H56.5z"/>
		</g>
	</g>
	<g>
		<g>
			<rect x="19.9" y="13.8" fill-rule="evenodd" clip-rule="evenodd" fill="#FC7F01" width="43.8" height="14.8"/>
		</g>
	</g>
	<g>
		<path fill="#FEFEFE" d="M32,25.4h-1.7v-1.5H32V25.4z M35.2,22.5v2.8h-1.6v-7.9h3.1c0.9,0,1.6,0.2,2.1,0.7c0.5,0.5,0.8,1.1,0.8,1.8
			c0,0.8-0.3,1.4-0.8,1.8c-0.5,0.5-1.2,0.7-2.1,0.7H35.2z M35.2,21.3h1.6c0.4,0,0.7-0.1,1-0.4c0.2-0.2,0.3-0.5,0.3-0.9
			c0-0.4-0.1-0.7-0.3-0.9c-0.2-0.2-0.6-0.4-1-0.4h-1.6V21.3z M42.4,22.5v2.8h-1.6v-7.9h3.1c0.9,0,1.6,0.2,2.1,0.7
			c0.5,0.5,0.8,1.1,0.8,1.8c0,0.8-0.3,1.4-0.8,1.8c-0.5,0.5-1.2,0.7-2.1,0.7H42.4z M42.4,21.3h1.5c0.4,0,0.8-0.1,1-0.4
			c0.2-0.2,0.3-0.5,0.3-0.9c0-0.4-0.1-0.7-0.3-0.9c-0.2-0.2-0.6-0.4-1-0.4h-1.5V21.3z M53.3,18.7h-2.2v6.6h-1.6v-6.6h-2.2v-1.2h5.9
			V18.7z"/>
	</g>
	<g>
		<g>
			<path fill="#FC7F01" d="M49.3,58.8c-0.3,0-0.7-0.2-0.8-0.5l-3.3-6c-0.3-0.5-0.1-1.1,0.4-1.3c0.5-0.3,1.1-0.1,1.3,0.4l3.3,6
				c0.3,0.5,0.1,1.1-0.4,1.3C49.6,58.8,49.5,58.8,49.3,58.8z M34.4,58.8c-0.2,0-0.3,0-0.5-0.1c-0.5-0.3-0.6-0.8-0.4-1.3l3.3-6
				c0.3-0.5,0.8-0.6,1.3-0.4c0.5,0.3,0.6,0.8,0.4,1.3l-3.3,6C35.1,58.6,34.7,58.8,34.4,58.8z"/>
		</g>
	</g>
	<g>
		<g>
			<path fill="#FC7F01" d="M41.9,35.9c-0.5,0-1-0.4-1-1v-2.1c0-0.5,0.4-1,1-1c0.5,0,1,0.4,1,1v2.1C42.8,35.4,42.4,35.9,41.9,35.9z"
				/>
		</g>
	</g>
	<g>
		<g>
			<path fill="#FC7F01" d="M57.4,52.8H26.3c-0.5,0-1-0.4-1-1v-17c0-0.5,0.4-1,1-1h31.1c0.5,0,1,0.4,1,1v17
				C58.4,52.4,57.9,52.8,57.4,52.8z M27.3,50.9h29.2v-15H27.3V50.9z"/>
		</g>
	</g>
	<g>
		<g>
			<path fill="#FC7F01" d="M53.3,48.5c-0.5,0-1-0.4-1-1v-8.2c0-0.5,0.4-1,1-1c0.5,0,1,0.4,1,1v8.2C54.3,48.1,53.9,48.5,53.3,48.5z"
				/>
		</g>
	</g>
	<g>
		<g>
			<path fill="#FC7F01" d="M50.2,48.5c-0.5,0-1-0.4-1-1l0-4.8c0-0.5,0.4-1,1-1c0,0,0,0,0,0c0.5,0,1,0.4,1,1l0,4.8
				C51.2,48.1,50.8,48.5,50.2,48.5C50.2,48.5,50.2,48.5,50.2,48.5z"/>
		</g>
	</g>
	<g>
		<g>
			<path fill="#FC7F01" d="M47.1,48.5c-0.5,0-1-0.4-1-1v-2.4c0-0.5,0.4-1,1-1c0.5,0,1,0.4,1,1v2.4C48.1,48.1,47.7,48.5,47.1,48.5z"
				/>
		</g>
	</g>
	<g>
		<g>
			<path fill="#FC7F01" d="M39.8,40.3h-9.5c-0.5,0-1-0.4-1-1c0-0.5,0.4-1,1-1h9.5c0.5,0,1,0.4,1,1C40.7,39.9,40.3,40.3,39.8,40.3z"
				/>
		</g>
	</g>
	<g>
		<g>
			<path fill="#FC7F01" d="M36.1,44.4h-5.8c-0.5,0-1-0.4-1-1c0-0.5,0.4-1,1-1h5.8c0.5,0,1,0.4,1,1C37.1,44,36.6,44.4,36.1,44.4z"/>
		</g>
	</g>
	<g>
		<g>
			<path fill="#FC7F01" d="M42,48.5H30.3c-0.5,0-1-0.4-1-1c0-0.5,0.4-1,1-1H42c0.5,0,1,0.4,1,1C43,48.1,42.5,48.5,42,48.5z"/>
		</g>
	</g>
</g>
</svg>
