<?xml version="1.0" encoding="utf-8"?>
<!-- Generator: Adobe Illustrator 23.0.3, SVG Export Plug-In . SVG Version: 6.00 Build 0)  -->
<svg version="1.1" id="Layer_1" xmlns="http://www.w3.org/2000/svg" xmlns:xlink="http://www.w3.org/1999/xlink" x="0px" y="0px"
	 viewBox="0 0 83.9 83.9" enable-background="new 0 0 83.9 83.9" xml:space="preserve">
<g>
	<g>
		<g>
			<path fill="#8B3ADF" d="M48.9,73.8H19.6c-0.5,0-1-0.4-1-1V13.6c0-0.5,0.4-1,1-1h44c0.3,0,0.5,0.1,0.7,0.3
				c0.2,0.2,0.3,0.4,0.3,0.7l-0.2,44.6c0,0.3-0.1,0.5-0.3,0.7L49.6,73.5C49.4,73.7,49.2,73.8,48.9,73.8z M20.5,71.9h28l13.9-14.1
				l0.2-43.2H20.5V71.9z"/>
		</g>
	</g>
	<g>
		<g>
			<path fill="#8B3ADF" d="M48.9,73.8c-0.1,0-0.2,0-0.4-0.1c-0.4-0.1-0.6-0.5-0.6-0.9v-7.3c0-5.8,2.5-8.3,8.2-8.3h7.2
				c0.4,0,0.7,0.2,0.9,0.6c0.1,0.4,0.1,0.8-0.2,1L49.6,73.5C49.4,73.7,49.2,73.8,48.9,73.8z M56.2,59.2c-4.6,0-6.3,1.7-6.3,6.4v4.9
				l11.2-11.3H56.2z"/>
		</g>
	</g>
	<g>
		<g>
			<rect x="19.7" y="13.6" fill-rule="evenodd" clip-rule="evenodd" fill="#8B3ADF" width="43.8" height="14.8"/>
		</g>
	</g>
	<g>
		<path fill="#FEFEFE" d="M30.6,24.9H29v-1.4h1.6V24.9z M34.2,17.1l2,5.8h0l2-5.8h2v7.9h-1.5v-2.3l0.1-3.5h0l-2.1,5.8h-1l-2.1-5.8h0
			l0.1,3.5v2.3h-1.5v-7.9H34.2z M43.3,22.1v2.9h-1.6v-7.9h3.1c0.9,0,1.6,0.2,2.1,0.7c0.5,0.5,0.8,1.1,0.8,1.8c0,0.8-0.2,1.4-0.8,1.8
			c-0.5,0.5-1.2,0.7-2.1,0.7H43.3z M43.3,20.9h1.5c0.4,0,0.8-0.1,1-0.4c0.2-0.2,0.3-0.5,0.3-0.9c0-0.4-0.1-0.7-0.3-0.9
			c-0.2-0.2-0.5-0.4-1-0.4h-1.5V20.9z M53.2,22h0.9v1.2h-0.9v1.7h-1.6v-1.7h-3.2l-0.1-0.9l3.2-5.2h1.6V22z M49.9,22h1.8v-2.8h0
			l-0.1,0.2L49.9,22z"/>
	</g>
	<g>
		<g>
			<path fill="#8B3ADF" d="M41.6,59.3c-7.8,0-14.2-6.4-14.2-14.4c0-7.9,6.4-14.4,14.2-14.4c7.9,0,14.2,6.4,14.2,14.4
				C55.8,52.8,49.4,59.3,41.6,59.3z M41.6,32.2c-7,0-12.6,5.7-12.6,12.8c0,7,5.7,12.8,12.6,12.8c7,0,12.6-5.7,12.6-12.8
				C54.2,37.9,48.5,32.2,41.6,32.2z"/>
		</g>
	</g>
	<g>
		<g>
			<path fill="#8B3ADF" d="M38,52.7c-0.6,0-1.2-0.3-1.5-0.8c-0.2-0.3-0.2-0.6-0.2-0.9V38.8c0-0.9,0.7-1.7,1.7-1.7
				c0.3,0,0.6,0.1,0.9,0.3l5.2,3c0,0,0.1,0.1,0.1,0.1l5.1,3c0.8,0.5,1.1,1.5,0.6,2.3c-0.1,0.2-0.4,0.5-0.6,0.6l-5.1,3
				c0,0-0.1,0-0.1,0.1l-5.3,3.1C38.5,52.7,38.3,52.7,38,52.7z M38,38.7C37.9,38.7,37.9,38.7,38,38.7L37.9,51c0,0,0,0.1,0,0.1
				c0,0,0,0,0,0c0,0,0,0,0,0l5.1-3c0,0,0.1,0,0.1-0.1l5.3-3.1c0-0.1,0-0.1,0-0.1l-5.2-3c0,0-0.1-0.1-0.1-0.1L38,38.7
				C38,38.7,38,38.7,38,38.7z"/>
		</g>
	</g>
</g>
</svg>
