<?xml version="1.0" encoding="utf-8"?>
<!-- Generator: Adobe Illustrator 23.0.3, SVG Export Plug-In . SVG Version: 6.00 Build 0)  -->
<svg version="1.1" id="Layer_1" xmlns="http://www.w3.org/2000/svg" xmlns:xlink="http://www.w3.org/1999/xlink" x="0px" y="0px"
	 viewBox="0 0 83.9 83.9" enable-background="new 0 0 83.9 83.9" xml:space="preserve">
<g>
	<g>
		<g>
			<path fill="#149DEA" d="M48.9,73.1H19.6c-0.5,0-1-0.4-1-1V12.9c0-0.5,0.4-1,1-1h44c0.3,0,0.5,0.1,0.7,0.3
				c0.2,0.2,0.3,0.4,0.3,0.7l-0.2,44.6c0,0.3-0.1,0.5-0.3,0.7L49.6,72.9C49.4,73,49.2,73.1,48.9,73.1z M20.5,71.2h28l13.9-14.1
				l0.2-43.3H20.5V71.2z"/>
		</g>
	</g>
	<g>
		<g>
			<path fill="#149DEA" d="M48.9,73.1c-0.1,0-0.2,0-0.4-0.1c-0.4-0.1-0.6-0.5-0.6-0.9v-7.3c0-5.8,2.5-8.3,8.2-8.3h7.2
				c0.4,0,0.7,0.2,0.9,0.6c0.1,0.4,0.1,0.8-0.2,1L49.6,72.9C49.4,73,49.2,73.1,48.9,73.1z M56.2,58.5c-4.6,0-6.3,1.7-6.3,6.4v4.9
				l11.2-11.3H56.2z"/>
		</g>
	</g>
	<g>
		<g>
			<rect x="19.7" y="12.9" fill-rule="evenodd" clip-rule="evenodd" fill="#149DEA" width="43.8" height="14.8"/>
		</g>
	</g>
	<g>
		<path fill="#FEFEFE" d="M32.8,24.5h-1.7V23h1.7V24.5z M34.5,24.5v-8.4h2.9c1,0,1.9,0.3,2.5,1c0.7,0.7,1,1.5,1,2.5V21
			c0,1-0.3,1.9-1,2.5c-0.7,0.6-1.5,1-2.5,1H34.5z M36.1,17.4v5.8h1.1c0.6,0,1.1-0.2,1.4-0.6c0.3-0.4,0.5-0.9,0.5-1.6v-1.4
			c0-0.7-0.2-1.2-0.5-1.6c-0.3-0.4-0.8-0.6-1.4-0.6H36.1z M48.8,21.1c0,1-0.3,1.9-1,2.6c-0.6,0.7-1.5,1-2.5,1c-1,0-1.9-0.3-2.5-1
			c-0.6-0.7-1-1.5-1-2.6v-1.5c0-1,0.3-1.9,1-2.5c0.6-0.7,1.5-1,2.5-1c1,0,1.9,0.3,2.5,1c0.7,0.7,1,1.5,1,2.5V21.1z M47.2,19.6
			c0-0.7-0.2-1.2-0.5-1.6c-0.3-0.4-0.8-0.6-1.3-0.6c-0.6,0-1,0.2-1.3,0.6c-0.3,0.4-0.5,1-0.5,1.6v1.5c0,0.7,0.2,1.2,0.5,1.6
			c0.3,0.4,0.7,0.6,1.3,0.6c0.6,0,1-0.2,1.3-0.6c0.3-0.4,0.5-1,0.5-1.6V19.6z M56.4,21.7L56.4,21.7c0,0.9-0.2,1.7-0.8,2.2
			c-0.6,0.5-1.3,0.8-2.3,0.8c-1,0-1.8-0.3-2.4-1c-0.6-0.6-0.9-1.5-0.9-2.5v-1.7c0-1,0.3-1.8,0.9-2.5c0.6-0.7,1.4-1,2.4-1
			c1,0,1.8,0.3,2.4,0.8c0.6,0.5,0.9,1.3,0.9,2.2l0,0h-1.6c0-0.6-0.1-1-0.4-1.3c-0.3-0.3-0.7-0.4-1.2-0.4c-0.5,0-0.9,0.2-1.2,0.6
			c-0.3,0.4-0.4,0.9-0.4,1.6v1.7c0,0.6,0.1,1.2,0.5,1.6c0.3,0.4,0.7,0.6,1.3,0.6c0.5,0,0.9-0.1,1.2-0.4c0.2-0.3,0.4-0.7,0.4-1.3
			H56.4z"/>
	</g>
	<g>
		<g>
			<path fill="#149DEA" d="M56.2,38H26.9c-0.5,0-1-0.4-1-1c0-0.5,0.4-1,1-1h29.3c0.5,0,1,0.4,1,1C57.2,37.5,56.8,38,56.2,38z"/>
		</g>
	</g>
	<g>
		<g>
			<path fill="#149DEA" d="M56.2,44.8H26.9c-0.5,0-1-0.4-1-1c0-0.5,0.4-1,1-1h29.3c0.5,0,1,0.4,1,1C57.2,44.3,56.8,44.8,56.2,44.8z"
				/>
		</g>
	</g>
	<g>
		<g>
			<path fill="#149DEA" d="M56.2,51.5H26.9c-0.5,0-1-0.4-1-1c0-0.5,0.4-1,1-1h29.3c0.5,0,1,0.4,1,1C57.2,51.1,56.8,51.5,56.2,51.5z"
				/>
		</g>
	</g>
	<g>
		<g>
			<path fill="#149DEA" d="M41.6,58.3H26.9c-0.5,0-1-0.4-1-1c0-0.5,0.4-1,1-1h14.7c0.5,0,1,0.4,1,1C42.5,57.9,42.1,58.3,41.6,58.3z"
				/>
		</g>
	</g>
</g>
</svg>
